# xmcd
#
# Track frame offsets:
#	150
#	9637
#	29516
#	59590
#	90443
#	131688
#	171293
#	193100
#	225513
#
# Disc length: 3384 seconds
#
# Revision: 0
# Processed by: cddbd v1.5.2PL0 Copyright (c) Steve Scherf et al.
# Submitted via: EasyCDDAExtractor 10.0.2.1
#
DISCID=740d3609
DTITLE=Heaven And Hell - St Pete Times Forum Tampa FL 14-09-07 Master Disc 1
DYEAR=2007
DGENRE=Hard Rock
TTITLE0=E5150
TTITLE1=The Mob Rules
TTITLE2=Children Of The Sea
TTITLE3=I
TTITLE4=The Sign Of The Southern Cross
TTITLE5=Voodoo
TTITLE6=Drum Solo
TTITLE7=Computer God
TTITLE8=Falling Off The Edge Of The World
EXTD=
EXTT0=
EXTT1=
EXTT2=
EXTT3=
EXTT4=
EXTT5=
EXTT6=
EXTT7=
EXTT8=
PLAYORDER=
